<?xml version="1.0" encoding="UTF-8" standalone="no"?>
<!-- Created with Inkscape (http://www.inkscape.org/) -->

<svg
   width="300"
   height="300"
   viewBox="0 0 300 300"
   version="1.1"
   id="svg1"
   xml:space="preserve"
   sodipodi:docname="bitmap.svg"
   inkscape:export-filename="bitmap.svg"
   inkscape:export-xdpi="96"
   inkscape:export-ydpi="96"
   inkscape:version="1.3.1 (9b9bdc1480, 2023-11-25, custom)"
   xmlns:inkscape="http://www.inkscape.org/namespaces/inkscape"
   xmlns:sodipodi="http://sodipodi.sourceforge.net/DTD/sodipodi-0.dtd"
   xmlns:xlink="http://www.w3.org/1999/xlink"
   xmlns="http://www.w3.org/2000/svg"
   xmlns:svg="http://www.w3.org/2000/svg"><sodipodi:namedview
     id="namedview1"
     pagecolor="#ffffff"
     bordercolor="#000000"
     borderopacity="0.25"
     inkscape:showpageshadow="2"
     inkscape:pageopacity="0.0"
     inkscape:pagecheckerboard="0"
     inkscape:deskcolor="#d1d1d1"
     inkscape:zoom="0.82666667"
     inkscape:cx="77.419355"
     inkscape:cy="64.112903"
     inkscape:window-width="1360"
     inkscape:window-height="699"
     inkscape:window-x="0"
     inkscape:window-y="0"
     inkscape:window-maximized="1"
     inkscape:current-layer="svg1" /><defs
     id="defs1"><linearGradient
       id="linearGradient14"><stop
         style="stop-color:#494949;stop-opacity:1;"
         offset="0.69846535"
         id="stop15" /><stop
         style="stop-color:#ffffff;stop-opacity:0;"
         offset="1"
         id="stop16" /></linearGradient><linearGradient
       id="swatch7"><stop
         style="stop-color:#808080;stop-opacity:1;"
         offset="0"
         id="stop7" /></linearGradient><radialGradient
       xlink:href="#linearGradient14"
       id="radialGradient16"
       cx="139.5957"
       cy="95.849609"
       fx="139.5957"
       fy="95.849609"
       r="50.799999"
       gradientUnits="userSpaceOnUse"
       gradientTransform="matrix(2.7091085,0,0,2.7091085,-226.53407,-107.75332)" /></defs><path
     id="path7"
     style="fill:#00ffff;fill-opacity:1;stroke:url(#radialGradient16);stroke-width:4.33457"
     d="M 151.64585,16.458239 A 135.45542,135.45542 0 0 0 16.190435,151.91367 a 135.45542,135.45542 0 0 0 2.31227,23.5724 L 98.558973,95.429806 H 129.51793 L 25.259609,199.68817 a 135.45542,135.45542 0 0 0 35.324226,51.75876 l 61.198345,-61.19832 h 30.95896 l -74.780929,74.78093 a 135.45542,135.45542 0 0 0 73.685639,22.33954 135.45542,135.45542 0 0 0 135.45541,-135.45541 135.45542,135.45542 0 0 0 -0.0271,-1.17996 l -80.15088,80.15153 H 175.96435 L 283.92126,122.92832 A 135.45542,135.45542 0 0 0 246.63396,55.719146 L 152.74114,149.61199 H 121.78218 L 229.74437,41.649772 A 135.45542,135.45542 0 0 0 151.64585,16.458239 Z" /></svg>
